<?xml version="1.0" encoding="UTF-8"?>
<svg version="1.1" xmlns="http://www.w3.org/2000/svg" width="255" height="255">
<path d="M0 0 C84.15 0 168.3 0 255 0 C255 84.15 255 168.3 255 255 C170.85 255 86.7 255 0 255 C0 170.85 0 86.7 0 0 Z " fill="#FDFDFD" transform="translate(0,0)"/>
<path d="M0 0 C1.17691406 -0.02449219 2.35382813 -0.04898438 3.56640625 -0.07421875 C11.21150475 -0.09973076 16.88590963 1.06413415 23.75 4.375 C24.884375 4.7875 26.01875 5.2 27.1875 5.625 C42.75763163 13.27348571 51.90627962 24.87664101 57.9375 40.859375 C63.48845075 58.04597253 60.99487449 74.41657537 53 90.25 C47.82836697 99.04574415 40.87566766 106.62888109 31.75 111.375 C31.09 111.375 30.43 111.375 29.75 111.375 C29.75 112.035 29.75 112.695 29.75 113.375 C21.43281999 116.38027438 13.67020151 119.12948987 4.75 119.375 C3.74195313 119.46007812 2.73390625 119.54515625 1.6953125 119.6328125 C-10.36829071 120.27360436 -23.92667274 117.24636982 -33.625 109.75 C-34.8482646 108.64125379 -36.05682846 107.51606798 -37.25 106.375 C-38.05824219 105.75753906 -38.86648437 105.14007813 -39.69921875 104.50390625 C-49.77513942 96.09444719 -58.01960339 81.51876059 -59.25 68.375 C-60.23604841 50.42891895 -57.00713865 34.74403087 -45.20703125 20.52734375 C-32.70359671 6.77606145 -18.6083917 0.02011718 0 0 Z " fill="#C22020" transform="translate(126.25,51.625)"/>
<path d="M0 0 C0.85247314 -0.00861557 1.70494629 -0.01723114 2.58325195 -0.02610779 C5.39956062 -0.04880056 8.21487699 -0.04202336 11.03125 -0.03295898 C12.98893531 -0.03819287 14.94661808 -0.04446848 16.90429688 -0.05174255 C21.00663116 -0.06215269 25.10861869 -0.0575761 29.2109375 -0.04296875 C34.47057867 -0.0257744 39.72912812 -0.04928107 44.98864746 -0.08445835 C49.03099825 -0.10640741 53.07308677 -0.10499702 57.11547852 -0.09669304 C59.05478107 -0.09587226 60.99410263 -0.10275978 62.93334961 -0.11746407 C65.64375146 -0.13486546 68.35217803 -0.12040556 71.0625 -0.09765625 C71.86469971 -0.10934845 72.66689941 -0.12104065 73.4934082 -0.13308716 C77.35403903 -0.06708516 79.1473445 0.17989818 82.03216553 2.83660889 C84.042275 6.45277627 84.03469529 9.65264817 83.921875 13.67797852 C83.91784668 14.36098022 83.91381836 15.04398193 83.90966797 15.74768066 C83.88885816 18.28071242 83.8330126 20.81335895 83.78125 23.34594727 C83.69875 29.01782227 83.61625 34.68969727 83.53125 40.53344727 C99.37125 40.53344727 115.21125 40.53344727 131.53125 40.53344727 C131.53125 45.48344727 131.53125 50.43344727 131.53125 55.53344727 C68.17125 55.53344727 4.81125 55.53344727 -60.46875 55.53344727 C-60.46875 50.58344727 -60.46875 45.63344727 -60.46875 40.53344727 C-44.62875 40.53344727 -28.78875 40.53344727 -12.46875 40.53344727 C-12.62686487 28.86559349 -12.62686487 28.86559349 -12.82910156 17.19848633 C-12.84078776 15.73202682 -12.85097975 14.26555431 -12.859375 12.79907227 C-12.87983887 12.04223145 -12.90030273 11.28539062 -12.92138672 10.50561523 C-12.9235311 7.26545541 -12.81855569 5.04717853 -10.96966553 2.3318634 C-7.44333427 -0.20393238 -4.18448489 -0.0340407 0 0 Z " fill="#BF2526" transform="translate(91.46875,184.466552734375)"/>
<path d="M0 0 C11.6155939 5.21673797 18.58421165 18.69506384 23 30 C26.1410251 41.95793768 23.34968468 53.48545893 20 65 C22.31 65 24.62 65 27 65 C32.05085108 48.52460481 31.71676662 31.91211472 25 16 C24.42894531 15.07058594 23.85789063 14.14117187 23.26953125 13.18359375 C22.85058594 12.46300781 22.43164062 11.74242188 22 11 C22.33 10.34 22.66 9.68 23 9 C33.11916875 21.25598351 36.32662968 33.24502183 35.25830078 48.89208984 C34.75057047 53.03551471 33.39528958 56.79295191 31.77734375 60.6171875 C30.90722517 63.28438515 30.93847522 64.43233273 32 67 C32.99 67.99 32.99 67.99 34 69 C35.34543616 72.63267762 35.39561485 76.1757231 35 80 C32.70313485 84.35612356 32.70313485 84.35612356 30 86 C26.18528479 86.80068985 22.81853644 86.76714225 19 86 C15.8125 83.8125 15.8125 83.8125 14 81 C13.6875 78.1875 13.6875 78.1875 14 76 C9.41283413 80.44381694 5.21237287 85.20228499 1 90 C0.34 89.67 -0.32 89.34 -1 89 C-0.5875 88.46375 -0.175 87.9275 0.25 87.375 C5.87844216 79.73639992 10.09184296 71.61294081 14 63 C14.38671875 62.15953125 14.7734375 61.3190625 15.171875 60.453125 C20.24151847 46.96596031 17.62636912 30.27350295 11.90234375 17.5625 C9.14149144 12.17181888 5.44478426 7.60484326 1.57421875 2.96875 C0 1 0 1 0 0 Z " fill="#C22424" transform="translate(180,69)"/>
<path d="M0 0 C15.51 0 31.02 0 47 0 C47 4.29 47 8.58 47 13 C30.17 13 13.34 13 -4 13 C-3.01 11.68 -2.02 10.36 -1 9 C-0.67 6.03 -0.34 3.06 0 0 Z " fill="#20153C" transform="translate(175,226)"/>
<path d="M0 0 C15.51 0 31.02 0 47 0 C47.495 4.455 47.495 4.455 48 9 C48.66 10.32 49.32 11.64 50 13 C33.5 13 17 13 0 13 C0 8.71 0 4.42 0 0 Z " fill="#1F153C" transform="translate(32,226)"/>
<path d="M0 0 C3.56921121 1.99875828 5.76455075 4.0690251 7 8 C7.48459952 13.23367486 6.82735806 16.55700877 4 21 C1.39070749 23.44621173 0.62968776 24 -3 24 C-3 24.66 -3 25.32 -3 26 C-7.42023441 26.44202344 -9.47609866 26.34255088 -13.25 23.875 C-16.98843298 19.96663825 -18.64131299 16.93690984 -19.625 11.625 C-18.8547366 7.15747228 -17.43891719 4.81207623 -14.3359375 1.55078125 C-9.8677803 -1.41553716 -5.10535762 -0.98626227 0 0 Z " fill="#F8E7E7" transform="translate(133,99)"/>
<path d="M0 0 C0 3.44972576 -0.3723183 3.7375248 -2.5 6.25 C-14.43366254 21.67021953 -18.71187279 38.05933511 -16.63671875 57.3828125 C-14.27617281 70.45413494 -6.22185287 81.7278918 3 91 C0 91 0 91 -2.26953125 89.09375 C-14.54917944 76.5688861 -23.683813 63.78566082 -24.375 45.75 C-23.99583276 26.59090257 -12.88334825 12.88334825 0 0 Z " fill="#352C50" transform="translate(74,64)"/>
<path d="M0 0 C11.6155939 5.21673797 18.58421165 18.69506384 23 30 C25.96735675 41.27942624 24.09176375 53.27159503 20 64 C18.60469559 66.32076141 17.18176752 68.2864431 15.3671875 70.2890625 C13.86848719 71.98793354 13.86848719 71.98793354 13.09375 74.35546875 C11.74006193 77.62849312 9.87018531 79.95374447 7.625 82.6875 C6.85414063 83.64011719 6.08328125 84.59273438 5.2890625 85.57421875 C3.21325715 87.77400564 1.77904291 88.91503119 -1 90 C-0.5875 89.3915625 -0.175 88.783125 0.25 88.15625 C5.55335743 80.10651105 9.98919919 71.75980057 14 63 C14.38671875 62.16082031 14.7734375 61.32164062 15.171875 60.45703125 C20.23535374 46.96238273 17.62948697 30.28042658 11.90234375 17.5625 C9.14149144 12.17181888 5.44478426 7.60484326 1.57421875 2.96875 C0 1 0 1 0 0 Z " fill="#362C50" transform="translate(180,69)"/>
<path d="M0 0 C1.4540625 0.0309375 1.4540625 0.0309375 2.9375 0.0625 C3.01954828 1.45732079 3.07716204 2.85358728 3.125 4.25 C3.17720703 5.41595703 3.17720703 5.41595703 3.23046875 6.60546875 C2.85986333 9.71361285 1.64413121 11.4561554 -0.0625 14.0625 C-0.93872229 15.79104761 -1.81367659 17.52023845 -2.6875 19.25 C-5.97674892 25.34211768 -10.23963526 30.13858476 -15.0625 35.0625 C-15.60519531 35.6503125 -16.14789063 36.238125 -16.70703125 36.84375 C-18.0625 38.0625 -18.0625 38.0625 -20.0625 38.0625 C-20.78776401 31.17249188 -20.78776401 31.17249188 -18.97265625 28.39453125 C-17.94156866 27.28686421 -16.90029285 26.18863404 -15.8515625 25.09765625 C-10.27289739 18.75162018 -6.62175565 11.06663476 -4.5703125 2.92578125 C-3.71959627 -0.19569292 -3.41234103 0.06963961 0 0 Z " fill="#C62F2F" transform="translate(202.0625,160.9375)"/>
<path d="M0 0 C0.33 0.66 0.66 1.32 1 2 C-0.18914153 4.34825423 -1.43299131 6.6002945 -2.75 8.875 C-10.77747866 23.44563764 -12.2705769 38.81229128 -8.0546875 54.953125 C-5.76016338 61.58175025 -2.28834559 67.47364988 2 73 C1.67 73.66 1.34 74.32 1 75 C-10.22799244 62.70267495 -15.46524766 50.20987114 -15.2734375 33.46484375 C-14.27161851 20.77036602 -7.98198039 9.66239732 0 0 Z " fill="#41385A" transform="translate(54,74)"/>
<path d="M0 0 C9.08796604 8.58307903 13.01387292 18.19501355 13.47558594 30.73291016 C13.55426962 38.24090709 12.76021504 44.58447585 9.875 51.6171875 C8.77019548 54.20274205 8.77019548 54.20274205 9 58 C8.34 58 7.68 58 7 58 C7 57.34 7 56.68 7 56 C6.34 56 5.68 56 5 56 C5.2165625 55.29359375 5.433125 54.5871875 5.65625 53.859375 C9.97400482 37.9476489 9.42995061 22.23264356 3 7 C2.00956736 5.32763013 1.01219559 3.65928836 0 2 C0 1.34 0 0.68 0 0 Z " fill="#504867" transform="translate(202,78)"/>
<path d="M0 0 C2 2 2 2 2.375 4.875 C2 8 2 8 0.3125 10.375 C-2 12 -2 12 -4.4375 12.5 C-7.95385308 11.81388233 -9.57904909 10.62846098 -12 8 C-12.625 4.9375 -12.625 4.9375 -12 2 C-8.13996495 -1.62609353 -4.94739174 -1.21351118 0 0 Z " fill="#C42828" transform="translate(132,106)"/>
<path d="M0 0 C1.49106457 2.98212913 1.11941467 5.71609658 1 9 C0.67 9.33 0.34 9.66 0 10 C-1.69141656 9.91036938 -3.37959602 9.75422324 -5.0625 9.5625 C-5.98160156 9.46066406 -6.90070313 9.35882813 -7.84765625 9.25390625 C-8.55792969 9.17011719 -9.26820313 9.08632812 -10 9 C-10.35807422 2.67402207 -10.35807422 2.67402207 -8.9375 0 C-5.80758074 -1.6154422 -3.31825907 -0.79884015 0 0 Z " fill="#F5DDDD" transform="translate(169,224)"/>
<path d="M0 0 C1.670625 0.061875 1.670625 0.061875 3.375 0.125 C3.56906478 1.77007218 3.75507935 3.41609594 3.9375 5.0625 C4.04191406 5.97902344 4.14632812 6.89554688 4.25390625 7.83984375 C4.29386719 8.59394531 4.33382812 9.34804687 4.375 10.125 C3.375 11.125 3.375 11.125 0 11.375 C-3.625 11.125 -3.625 11.125 -5.625 10 C-7.15232345 7.13626853 -6.46778671 5.17199809 -5.625 2.125 C-3.625 0.125 -3.625 0.125 0 0 Z " fill="#F6E0E0" transform="translate(90.625,189.875)"/>
<path d="M0 0 C0.33 0.66 0.66 1.32 1 2 C-0.18918073 4.34833165 -1.43098158 6.60132512 -2.75 8.875 C-6.4023002 15.39053295 -8.67763707 21.60303236 -10 29 C-10.66 28.67 -11.32 28.34 -12 28 C-12.66 32.95 -13.32 37.9 -14 43 C-14.33 43 -14.66 43 -15 43 C-15.98686309 26.25074027 -10.63401654 12.87275686 0 0 Z " fill="#5F5874" transform="translate(54,74)"/>
<path d="M0 0 C1.8125 1.1875 1.8125 1.1875 3 3 C3.42822025 5.85480169 3.40659584 7.34492892 1.875 9.8125 C-0.85987361 11.54458662 -2.83740129 11.40373601 -6 11 C-8.15502531 7.76746204 -8.46856135 6.74849077 -8 3 C-5.85607122 -0.27231235 -3.76836426 -0.56525464 0 0 Z " fill="#F9E9E9" transform="translate(167,190)"/>
<path d="M0 0 C2.4375 0.75 2.4375 0.75 4.4375 2.75 C4.75 5.75 4.75 5.75 4.4375 8.75 C1.20496204 10.90502531 0.18599077 11.21856135 -3.5625 10.75 C-5.4375 9.625 -5.4375 9.625 -6.5625 7.75 C-6.4375 4.6875 -6.4375 4.6875 -5.5625 1.75 C-2.5625 -0.25 -2.5625 -0.25 0 0 Z " fill="#F9E9E9" transform="translate(90.5625,223.25)"/>
<path d="M0 0 C0.33 0 0.66 0 1 0 C1.44221413 4.74469752 1.62971518 7.74228224 -1.30078125 11.625 C-2.28452818 12.76767 -3.28909447 13.89270877 -4.3125 15 C-5.06176758 15.87591797 -5.06176758 15.87591797 -5.82617188 16.76953125 C-7.30078125 18.4375 -7.30078125 18.4375 -10 21 C-10.99 21 -11.98 21 -13 21 C-12.56429687 20.40574219 -12.12859375 19.81148437 -11.6796875 19.19921875 C-7.25612939 13.04262163 -3.49100233 6.72625358 0 0 Z " fill="#564F6D" transform="translate(192,137)"/>
<path d="M0 0 C1.485 0.99 1.485 0.99 3 2 C3.35644531 3.84765625 3.35644531 3.84765625 3.328125 6.0625 C3.32039062 7.25746094 3.32039062 7.25746094 3.3125 8.4765625 C3.291875 9.30929688 3.27125 10.14203125 3.25 11 C3.24484375 11.83273438 3.2396875 12.66546875 3.234375 13.5234375 C3.15453696 19.69092608 3.15453696 19.69092608 2 22 C1.34 22 0.68 22 0 22 C0 14.74 0 7.48 0 0 Z " fill="#31284C" transform="translate(212,100)"/>
<path d="M0 0 C0 3.5011712 -0.54495628 4.00213792 -2.6875 6.625 C-5.98053312 10.83319909 -8.52744399 15.27369825 -11 20 C-12.32 19.67 -13.64 19.34 -15 19 C-13.54948082 14.32898289 -10.81405875 11.27641929 -7.5 7.8125 C-6.75169922 7.01295898 -6.75169922 7.01295898 -5.98828125 6.19726562 C-4.02143531 4.10123007 -2.03248986 2.03248986 0 0 Z " fill="#433B5C" transform="translate(74,64)"/>
<path d="M0 0 C0.33 0 0.66 0 1 0 C1 1.65 1 3.3 1 5 C1.66 5 2.32 5 3 5 C2.7834375 5.67546875 2.566875 6.3509375 2.34375 7.046875 C2.0653125 7.93890625 1.786875 8.8309375 1.5 9.75 C1.2215625 10.63171875 0.943125 11.5134375 0.65625 12.421875 C-0.16445285 15.20267529 -0.16445285 15.20267529 0 19 C-0.66 19 -1.32 19 -2 19 C-2 18.34 -2 17.68 -2 17 C-2.66 17 -3.32 17 -4 17 C-2.68 11.39 -1.36 5.78 0 0 Z " fill="#514463" transform="translate(211,117)"/>
<path d="M0 0 C0.33 0.66 0.66 1.32 1 2 C-0.24125182 4.61161731 -1.5310524 7.10501786 -2.9375 9.625 C-3.32357422 10.33140625 -3.70964844 11.0378125 -4.10742188 11.765625 C-5.06448696 13.51433651 -6.03134031 15.25768432 -7 17 C-7.99 17 -8.98 17 -10 17 C-8.68018255 12.31812124 -6.80204328 8.99625079 -3.875 5.125 C-3.15054688 4.15820312 -2.42609375 3.19140625 -1.6796875 2.1953125 C-1.12539063 1.47085938 -0.57109375 0.74640625 0 0 Z " fill="#665F7A" transform="translate(54,74)"/>
<path d="M0 0 C0.33 0 0.66 0 1 0 C1 4.95 1 9.9 1 15 C0.34 15 -0.32 15 -1 15 C-1.33 15.66 -1.66 16.32 -2 17 C-2.11116338 11.55299453 -2.00581962 6.36437132 -1 1 C-0.67 0.67 -0.34 0.34 0 0 Z " fill="#271D44" transform="translate(42,101)"/>
<path d="M0 0 C3.45201639 1.47721422 5.64961936 3.43794001 8.25 6.125 C8.95640625 6.84945312 9.6628125 7.57390625 10.390625 8.3203125 C11.18726563 9.15175781 11.18726563 9.15175781 12 10 C11.34 11.32 10.68 12.64 10 14 C8.51887554 12.04312041 7.04003653 10.08458563 5.5625 8.125 C5.14162109 7.56941406 4.72074219 7.01382813 4.28710938 6.44140625 C1.11328125 2.2265625 1.11328125 2.2265625 0 0 Z " fill="#5D5673" transform="translate(180,69)"/>
<path d="M0 0 C0.99 0 1.98 0 3 0 C4.0625 1.875 4.0625 1.875 5 4 C4.67 4.66 4.34 5.32 4 6 C3.7677354 8.71262116 3.58063765 11.40773126 3.4375 14.125 C3.39431641 14.87910156 3.35113281 15.63320312 3.30664062 16.41015625 C3.2005168 18.27321888 3.09974999 20.13658524 3 22 C2.67 22 2.34 22 2 22 C1.93941406 20.91460937 1.87882813 19.82921875 1.81640625 18.7109375 C1.73193936 17.26561514 1.64729449 15.82030318 1.5625 14.375 C1.52318359 13.66214844 1.48386719 12.94929688 1.44335938 12.21484375 C1.19690319 8.08196318 0.76529947 4.07730976 0 0 Z " fill="#6B647E" transform="translate(209,95)"/>
<path d="M0 0 C4.21814817 3.9700218 7.61227103 8.30840284 11 13 C7.54798361 11.52278578 5.35038064 9.56205999 2.75 6.875 C2.04359375 6.15054688 1.3371875 5.42609375 0.609375 4.6796875 C-0.18726562 3.84824219 -0.18726562 3.84824219 -1 3 C-0.67 2.01 -0.34 1.02 0 0 Z " fill="#6C6680" transform="translate(66,143)"/>
<path d="M0 0 C7 8.75 7 8.75 7 14 C0.16897714 6.54602223 0.16897714 6.54602223 -1 2 C-0.67 1.34 -0.34 0.68 0 0 Z " fill="#827C93" transform="translate(48,135)"/>
<path d="M0 0 C-1.59092052 4.13639336 -4.60474918 7.23213248 -8 10 C-8.66 10 -9.32 10 -10 10 C-8.50006099 6.10015857 -4.53875449 0 0 0 Z " fill="#CE4E4E" transform="translate(90,65)"/>
<path d="M0 0 C1.10844919 3.32534757 0.84454356 5.62182575 0 9 C-0.66 8.67 -1.32 8.34 -2 8 C-2.66 8.66 -3.32 9.32 -4 10 C-3.51421457 6.87709365 -3.0013988 4.00419641 -2 1 C-1.34 0.67 -0.68 0.34 0 0 Z " fill="#4A4262" transform="translate(45,90)"/>
<path d="M0 0 C0.99 0.66 1.98 1.32 3 2 C0.69 4.64 -1.62 7.28 -4 10 C-4.33 9.01 -4.66 8.02 -5 7 C-4.00390625 5.17578125 -4.00390625 5.17578125 -2.5625 3.3125 C-2.08941406 2.68988281 -1.61632812 2.06726563 -1.12890625 1.42578125 C-0.75636719 0.95527344 -0.38382813 0.48476562 0 0 Z " fill="#A02029" transform="translate(198,134)"/>
<path d="M0 0 C0.33 0 0.66 0 1 0 C1 2.64 1 5.28 1 8 C0.01 8.495 0.01 8.495 -1 9 C-1.66 8.67 -2.32 8.34 -3 8 C-1.125 2.25 -1.125 2.25 0 0 Z " fill="#4C4464" transform="translate(192,137)"/>
<path d="M0 0 C0 4.38968456 -2.12805101 5.76905739 -5 9 C-5.99 8.67 -6.98 8.34 -8 8 C-5.36 5.36 -2.72 2.72 0 0 Z " fill="#5F5874" transform="translate(74,64)"/>
<path d="M0 0 C1.5 1.25 1.5 1.25 3 3 C3 4.32 3 5.64 3 7 C2.34 7 1.68 7 1 7 C-0.38938077 5.03852126 -1.7260411 3.03833424 -3 1 C-2.01 0.67 -1.02 0.34 0 0 Z " fill="#403759" transform="translate(63,138)"/>
<path d="M0 0 C2 1 2 1 3.125 3.375 C4 6 4 6 4 9 C3.34 9 2.68 9 2 9 C0.14223235 5.86501708 -0.20140476 3.62528568 0 0 Z " fill="#382F53" transform="translate(44,128)"/>
</svg>
